<svg viewBox="0 0 14 24" fill="none" xmlns="http://www.w3.org/2000/svg">
    <g clip-path="url(#clip0_1_51033)">
    <path d="M12.7783 10.2609C13.4483 9.15238 13.6583 7.83035 13.6283 6.52865C13.6283 6.51848 13.6283 6.49814 13.6283 6.48797C13.5683 4.46424 12.8883 2.47102 12.3383 1.33204C12.2083 0.823567 11.5283 0.630346 10.4783 0.477804C9.54831 0.3456 8.31831 0.274414 7.00831 0.274414C5.69831 0.274414 4.46831 0.3456 3.53831 0.477804C2.47831 0.620177 1.79831 0.823567 1.66831 1.33204C1.29831 2.08458 0.888311 3.20323 0.628311 4.45407C0.628311 4.46424 0.628311 4.47441 0.618311 4.48458C0.228311 6.36594 0.198311 8.55238 1.21831 10.2609C2.19831 11.8981 3.95831 12.8032 6.44831 12.9354V20.5524C5.37831 20.5829 4.38831 20.6846 3.61831 20.8575C2.84831 21.0303 1.83831 21.3456 1.83831 22.1287C1.83831 22.9117 2.85831 23.2371 3.61831 23.3998C4.52831 23.6032 5.72831 23.7151 6.99831 23.7151C8.26831 23.7151 9.46831 23.6032 10.3783 23.3998C11.1483 23.227 12.1583 22.9117 12.1583 22.1287C12.1583 21.3456 11.1383 21.0202 10.3783 20.8575C9.59831 20.6846 8.60831 20.5727 7.54831 20.5524V12.9354C10.0383 12.8032 11.7883 11.9083 12.7783 10.2609ZM6.99831 1.39306C8.06831 1.39306 8.95831 1.44391 9.64831 1.50492C8.95831 1.57611 8.06831 1.62696 6.99831 1.62696C5.92831 1.62696 5.03831 1.57611 4.34831 1.51509C5.03831 1.44391 5.92831 1.39306 6.99831 1.39306ZM6.99831 2.7456C8.30831 2.7456 9.53831 2.67441 10.4683 2.54221C10.8983 2.48119 11.2683 2.41001 11.5583 2.31848C11.9183 3.16255 12.2383 4.21001 12.3983 5.30831C10.7583 4.44391 8.12831 4.36255 5.97831 4.82018C4.84831 4.23035 3.24831 3.51848 1.95831 3.66085C2.09831 3.17272 2.26831 2.71509 2.43831 2.30831C2.72831 2.39984 3.09831 2.47102 3.52831 2.53204C4.45831 2.67441 5.68831 2.7456 6.99831 2.7456ZM12.2583 6.51848C11.7183 6.78289 10.4283 7.00662 7.67831 5.69475C9.56831 5.54221 11.3583 5.85746 12.2583 6.51848ZM2.15831 9.68119C1.36831 8.34899 1.34831 6.54899 1.65831 4.89136C2.75831 4.33204 5.18831 5.64391 6.12831 6.15238C6.24831 6.22357 6.35831 6.27441 6.45831 6.32526C8.64831 7.47441 10.1983 7.84052 11.2683 7.84052C11.7683 7.84052 12.1683 7.75916 12.4783 7.64729C12.3983 8.3795 12.1983 9.08119 11.8383 9.68119C10.9983 11.0846 9.36831 11.8168 7.00831 11.8371C4.62831 11.8066 2.99831 11.0846 2.15831 9.68119ZM3.20831 22.1388C3.73831 21.9456 4.84831 21.7219 6.44831 21.671V22.1388C6.44831 22.332 6.54831 22.5049 6.69831 22.6066C4.96831 22.5761 3.76831 22.3422 3.20831 22.1388ZM10.7883 22.1388C10.2283 22.3422 9.02831 22.5863 7.29831 22.6066C7.44831 22.5049 7.54831 22.332 7.54831 22.1388V21.671C9.14831 21.7117 10.2583 21.9456 10.7883 22.1388Z" fill="white"/>
    </g>
    <defs>
    <clipPath id="clip0_1_51033">
    <rect width="14" height="24" fill="white"/>
    </clipPath>
    </defs>
</svg>
