<svg width="377" height="20" viewBox="0 0 377 20" fill="none" xmlns="http://www.w3.org/2000/svg">
<g clip-path="url(#clip0_470_1853)">
<path d="M327.94 12.08C328.14 12.48 328.44 12.88 328.64 13.28C329.24 14.08 329.44 14.98 329.64 15.88C329.74 16.28 329.64 16.68 329.54 17.08C329.34 17.88 328.74 18.38 327.84 18.48C327.04 18.58 326.44 18.28 325.94 17.68C325.74 17.38 325.54 17.08 325.44 16.68C325.14 15.18 324.04 14.18 323.34 12.98C323.14 12.68 322.84 12.48 322.44 12.48H321.14C320.74 12.78 320.94 13.18 320.94 13.58C320.94 14.58 320.84 15.48 320.44 16.38C320.14 17.08 319.74 17.48 319.04 17.68C317.44 18.18 316.04 16.88 316.34 15.28C316.34 15.08 316.54 14.88 316.54 14.68C316.64 14.18 316.74 13.68 316.74 13.28C316.64 11.58 316.84 9.88004 317.04 8.18004C317.24 6.78004 317.24 5.38004 317.34 3.98004V3.08004C317.44 1.98004 318.04 1.18004 319.04 0.880039C320.24 0.580039 321.44 0.280039 322.64 0.180039C323.44 0.0800386 324.34 0.380039 325.14 0.480039C326.24 0.680039 327.34 1.18004 328.34 1.78004C329.04 2.18004 329.54 2.78004 329.84 3.58004C329.94 3.98004 330.14 4.38004 330.24 4.88004C330.44 5.38004 330.44 5.88004 330.34 6.38004C330.24 6.88004 330.24 7.48004 330.14 7.98004C329.84 9.48004 329.14 10.78 328.04 11.78C328.14 11.78 328.04 11.88 327.94 12.08ZM321.34 7.88004C322.14 8.08004 322.84 8.18004 323.44 8.38004C325.64 8.98004 326.14 8.08004 326.24 5.98004V5.68004C326.14 5.48004 326.04 5.28004 325.84 5.18004C325.34 4.98004 324.74 4.68004 324.24 4.58004C323.34 4.48004 322.44 4.18004 321.54 4.68004C321.54 5.68004 321.44 6.78004 321.34 7.88004Z" fill="#BE1824"/>
<path d="M239.74 14.48C239.94 14.98 240.24 15.38 240.34 15.78C240.54 16.28 240.64 16.78 240.64 17.18C240.64 17.98 240.04 18.78 239.24 18.98C238.44 19.28 237.44 18.98 236.94 18.28C236.64 17.88 236.44 17.38 236.14 16.98C235.84 16.98 235.64 16.98 235.34 17.08C233.14 17.48 231.04 16.98 229.24 15.68C229.14 15.58 229.04 15.48 228.94 15.48C227.14 14.58 226.34 12.98 225.74 11.18C225.14 9.58001 225.44 8.08001 225.64 6.58001C225.64 6.28001 225.84 5.98001 225.94 5.68001C226.24 5.08001 226.64 4.48001 226.84 3.78001C226.94 3.28001 227.34 2.98001 227.74 2.68001C228.34 2.28001 228.94 1.98001 229.54 1.48001C230.14 1.08001 230.84 0.780014 231.54 0.780014C231.84 0.780014 232.04 0.780014 232.34 0.680014C234.54 0.380014 236.44 1.18001 238.24 2.08001C240.64 3.88001 242.04 6.18001 241.74 9.18001C241.54 10.88 241.14 12.48 240.14 13.78C239.94 14.08 239.84 14.18 239.74 14.48ZM229.54 8.68001V9.18001C229.54 9.38001 229.64 9.58001 229.64 9.68001C230.14 11.48 231.54 12.38 233.14 12.78C233.84 12.98 234.44 12.88 235.14 12.58C236.74 11.88 237.94 9.68001 237.54 7.88001C237.44 7.38001 237.24 6.98001 236.94 6.58001C236.04 5.28001 234.54 4.88001 233.04 4.78001C231.94 4.78001 231.04 5.18001 230.44 6.18001C230.34 6.38001 230.24 6.58001 230.04 6.78001C229.64 7.38001 229.54 7.98001 229.54 8.68001Z" fill="#BE1824"/>
<path d="M199.94 9.47999C200.14 11.48 199.24 13.18 198.14 14.88L197.84 15.18C196.54 16.18 195.24 16.98 193.64 17.18C193.34 17.18 193.14 17.18 192.84 17.28C190.74 17.68 188.94 17.08 187.24 16.08C186.24 15.48 185.34 14.68 184.64 13.78C183.64 12.58 183.24 11.18 183.04 9.77999C182.74 7.77999 183.34 5.98 184.34 4.28C184.54 3.98 184.74 3.68 185.04 3.48C186.04 2.68 186.94 1.88 188.04 1.18C189.24 0.379995 190.64 -0.0200049 192.14 0.179995C192.74 0.279995 193.34 0.379995 194.04 0.479995C195.74 0.779995 197.14 1.68 198.04 3.18C198.54 3.88 198.94 4.58 199.34 5.38C199.84 6.38 199.94 7.48 200.04 8.68C199.94 8.98 199.94 9.17999 199.94 9.47999ZM195.84 9.38C195.74 8.78 195.74 8.18 195.54 7.68C195.24 6.68 194.84 5.78 194.14 5.18C193.54 4.58 192.64 4.58 191.84 4.48C191.74 4.48 191.54 4.38 191.44 4.48C191.04 4.58 190.54 4.58 190.14 4.88C189.64 5.28 189.14 5.68 188.64 5.98C187.04 6.98 186.54 9.67999 187.94 11.28C188.34 11.78 188.84 12.08 189.34 12.48C190.64 13.48 192.04 13.38 193.54 12.88C194.44 12.58 195.04 11.98 195.34 11.08C195.64 10.58 195.84 9.98 195.84 9.38Z" fill="#BE1824"/>
<path d="M373.44 8.17998C373.84 8.57998 374.14 8.87998 374.44 9.27998C375.04 9.87998 375.54 10.58 375.84 11.38C377.14 14.18 375.74 17.28 372.84 18.18C372.14 18.38 371.34 18.58 370.64 18.68C369.14 18.98 367.74 18.58 366.24 18.08C365.64 17.88 365.14 17.48 364.84 16.88C364.44 16.28 363.94 15.58 363.64 14.98C363.44 14.68 363.34 14.28 363.34 13.98C363.24 13.18 363.64 12.48 364.34 12.08C365.04 11.68 365.84 11.68 366.54 12.18C367.04 12.58 367.54 13.08 367.84 13.68C368.14 14.18 368.54 14.38 369.14 14.48C370.04 14.68 370.94 14.38 371.74 14.08C372.14 13.98 372.34 13.48 372.14 13.08C371.84 12.38 371.34 11.78 370.64 11.48C370.14 11.28 369.64 11.08 369.14 10.98C366.84 10.68 365.24 9.37998 363.94 7.47998C363.54 6.87998 363.34 6.27998 363.44 5.57998C363.54 4.37998 363.94 3.17998 364.64 2.17998C365.54 0.97998 366.84 0.27998 368.24 0.0799805C370.24 -0.22002 371.94 0.279981 373.54 1.57998C373.84 1.77998 374.04 2.07998 374.24 2.37998C374.74 3.17998 375.24 4.07998 375.44 5.07998C375.84 6.57998 375.34 7.47998 373.84 7.97998C373.74 7.97998 373.54 8.07998 373.44 8.17998ZM371.54 7.27998C371.44 6.67998 371.24 6.17998 371.14 5.67998C371.04 5.17998 370.84 4.87998 370.34 4.57998C369.64 4.17998 368.84 4.17998 368.14 4.57998C367.64 4.87998 367.54 5.57998 367.94 6.07998C368.34 6.47998 368.74 6.77998 369.34 6.87998C370.04 6.97998 370.74 7.07998 371.54 7.27998Z" fill="#BE1824"/>
<path d="M168.24 7.88002C167.74 8.18002 167.34 8.48002 167.04 8.98002C166.84 9.28002 166.54 9.68002 166.24 9.88002C165.24 10.78 164.04 10.88 162.94 10.08C162.44 9.68002 161.94 9.18002 161.44 8.78002C161.24 8.68002 161.14 8.48002 160.84 8.28002C160.74 8.58002 160.54 8.88002 160.54 9.08002C160.54 10.48 160.34 11.98 159.94 13.38C159.74 14.08 159.74 14.78 159.64 15.48C159.64 15.78 159.54 16.08 159.44 16.38C159.14 17.18 158.54 17.78 157.64 17.78C156.74 17.88 156.04 17.38 155.64 16.68C155.34 16.18 155.24 15.68 155.34 15.08C155.54 13.88 155.74 12.68 155.94 11.48C155.94 11.18 156.04 10.98 156.04 10.68C156.04 8.98002 156.54 7.28002 156.44 5.58002C156.44 4.98002 156.54 4.38002 156.64 3.88002C156.94 2.38002 158.94 1.18002 160.54 2.48002C161.54 3.28002 162.54 4.28002 163.54 5.18002C163.64 5.28002 163.84 5.38002 163.94 5.58002C164.64 5.28002 165.04 4.78002 165.44 4.28002C166.04 3.38002 166.94 2.68002 167.74 1.88002C168.94 0.680016 170.84 1.18002 171.34 2.88002C171.64 4.08002 171.84 5.28002 172.04 6.48002C172.34 8.08002 172.64 9.68002 172.94 11.18C173.14 12.18 173.34 13.08 173.44 14.08C173.54 15.18 172.94 16.08 171.94 16.38C170.94 16.68 169.84 16.18 169.44 15.08C169.24 14.58 169.14 13.98 169.04 13.38C168.74 11.68 168.44 10.08 168.04 8.38002C168.34 8.18002 168.24 8.08002 168.24 7.88002Z" fill="#BE1824"/>
<path d="M137.84 0.579956C140.24 0.579956 141.94 1.37996 143.44 2.67996C143.84 2.97996 144.14 3.37996 144.54 3.67996C145.04 4.17996 145.34 4.77996 145.64 5.37996C146.24 6.67996 146.34 8.17996 146.54 9.57996V10.28C146.04 11.98 145.54 13.68 144.04 14.78C143.54 15.18 142.94 15.58 142.44 15.98C141.64 16.48 140.74 16.88 139.84 16.98C137.64 17.18 135.64 16.78 133.74 15.58C132.44 14.78 131.64 13.68 130.94 12.38C130.74 12.08 130.64 11.68 130.54 11.38C130.34 9.67996 129.94 7.87996 130.54 6.17996C130.74 5.47996 131.14 4.87996 131.54 4.27996C133.04 1.97996 135.24 0.779956 137.84 0.579956ZM138.64 12.88C139.94 12.88 140.84 12.08 141.64 11.08C141.94 10.68 142.24 10.08 142.24 9.57996C142.24 8.07996 141.94 6.67996 140.54 5.67996C139.74 5.07996 138.84 4.57996 137.84 4.77996C136.64 4.97996 135.54 5.67996 134.94 6.77996C134.84 6.97996 134.64 7.27996 134.74 7.47996C134.94 8.17996 134.84 8.77996 134.64 9.47996C134.44 10.08 134.54 10.48 134.94 10.98C135.74 12.38 137.14 12.78 138.64 12.88Z" fill="#BE1824"/>
<path d="M112.04 18.28C109.34 18.28 107.34 17.18 105.64 15.48C105.14 14.98 104.84 14.28 104.54 13.68C104.04 12.68 103.74 11.68 103.54 10.58C103.24 8.78001 103.64 7.08001 104.44 5.48001C105.64 3.38001 107.44 1.98001 109.64 1.28001C111.64 0.580007 113.74 0.980007 115.64 2.08001C116.94 2.78001 117.84 3.88001 118.64 5.08001C118.94 5.58001 119.24 6.18001 119.24 6.88001C119.34 7.98001 118.64 8.88001 117.64 9.08001C116.64 9.38001 115.64 8.88001 115.24 7.88001C114.84 6.98001 114.44 6.28001 113.64 5.78001C112.44 5.08001 111.34 4.98001 110.04 5.68001C108.84 6.38001 107.94 7.28001 107.64 8.68001C107.54 8.98001 107.54 9.28001 107.54 9.58001C107.64 10.48 107.94 11.48 108.44 12.28C109.64 14.18 112.74 14.98 114.74 12.78C114.94 12.48 115.14 12.18 115.44 11.98C116.24 11.28 117.24 11.28 118.04 11.88C118.74 12.48 119.04 13.38 118.64 14.28C118.24 15.18 117.64 15.98 116.84 16.58C115.44 17.78 113.84 18.38 112.04 18.28Z" fill="#BE1824"/>
<path d="M297.84 5.08002V6.98002C298.54 7.18002 299.14 7.28002 299.84 7.18002C300.24 7.08002 300.54 7.08002 300.94 7.08002C302.54 7.08002 303.54 8.78002 302.74 10.08C302.24 10.88 301.54 11.28 300.64 11.38H298.04C297.74 12.18 297.94 12.98 298.04 13.58C298.24 13.68 298.34 13.78 298.34 13.68C299.84 13.58 301.34 13.58 302.74 13.48C303.74 13.48 304.54 13.88 304.94 14.78C305.24 15.58 305.04 16.48 304.34 17.08C303.74 17.68 302.94 17.98 302.14 17.88C301.24 17.78 300.44 17.88 299.64 18.08C298.24 18.38 296.84 18.38 295.34 18.18C294.34 18.08 293.64 17.28 293.54 16.28C293.44 15.78 293.44 15.18 293.54 14.68C293.84 13.58 293.64 12.48 293.64 11.38C293.64 9.68002 293.64 8.08002 293.54 6.38002C293.54 5.48002 293.34 4.58002 293.24 3.68002C293.04 2.68002 293.34 1.88002 294.04 1.18002C294.44 0.780016 294.84 0.480016 295.44 0.380016C296.14 0.380016 296.84 0.280016 297.44 0.380016C298.64 0.680016 299.74 0.680016 300.94 0.580016C301.34 0.580016 301.64 0.480016 302.04 0.480016C303.34 0.380016 304.24 1.08002 304.54 2.28002C304.64 2.68002 304.64 2.98002 304.44 3.28002C304.04 3.88002 303.54 4.28002 302.84 4.48002C301.54 4.78002 300.34 4.98002 298.94 4.88002C298.64 5.08002 298.24 5.08002 297.84 5.08002Z" fill="#BE1824"/>
<path d="M349.74 13.18C348.84 13.28 347.94 13.38 346.94 13.38C346.04 13.38 345.14 13.38 344.14 13.48C343.64 14.48 343.04 15.38 342.74 16.48C342.54 17.28 342.04 17.78 341.24 17.98C339.74 18.38 338.34 17.08 338.64 15.58C338.74 14.98 338.94 14.38 339.24 13.78C339.94 12.48 340.64 11.18 340.94 9.68004C340.94 9.58004 341.04 9.48004 341.04 9.38004C342.24 7.28004 342.74 4.98004 343.54 2.78004C343.64 2.58004 343.64 2.48004 343.74 2.28004C344.34 0.980037 345.54 0.580037 346.84 1.08004C347.44 1.28004 347.94 1.78004 348.24 2.28004C349.74 4.28004 351.04 6.48004 352.24 8.68004C353.34 10.58 354.14 12.58 354.94 14.58C355.14 15.18 355.14 15.68 354.84 16.28C354.14 17.68 352.34 17.88 351.34 16.58C350.94 16.08 350.74 15.48 350.44 14.88C350.44 14.38 350.24 13.78 349.74 13.18ZM347.54 8.98004C347.34 8.38004 347.14 7.88004 346.64 7.38004C346.34 7.98004 346.04 8.48004 346.04 9.08004C346.64 9.08004 347.04 9.28004 347.54 8.98004Z" fill="#BE1824"/>
<path d="M70.04 4.87995C70.14 5.87995 70.24 6.87995 70.44 7.87995C71.14 7.87995 71.74 7.77995 72.34 7.77995C72.84 7.77995 73.34 7.77995 73.74 7.97995C74.64 8.37995 75.14 9.17995 74.94 10.18C74.84 11.08 74.24 11.68 73.34 11.88C72.94 11.98 72.54 11.98 72.14 11.98C71.64 11.98 71.04 12.08 70.54 12.08C70.34 12.78 70.34 13.38 70.44 13.98C70.94 14.28 71.54 14.18 72.04 14.08C73.04 13.88 74.14 14.08 75.14 14.18C75.54 14.18 75.94 14.38 76.24 14.58C76.94 14.98 77.34 15.88 77.14 16.68C76.94 17.48 76.44 18.08 75.64 18.28C75.04 18.38 74.44 18.38 73.74 18.38H70.74C70.14 18.38 69.44 18.38 68.84 18.48C67.24 18.68 66.24 17.88 66.24 16.18C66.24 14.38 66.24 12.48 66.14 10.68C66.04 8.97995 66.14 7.17995 65.74 5.47995C65.54 4.77995 65.54 3.97995 65.44 3.17995C65.24 1.47995 66.44 0.279953 68.04 0.379953C69.74 0.479953 71.44 0.379953 73.14 0.279953C73.74 0.179953 74.44 0.279953 75.04 0.479953C76.04 0.779953 76.64 1.67995 76.44 2.67995C76.34 3.67995 75.54 4.37995 74.54 4.47995C73.54 4.57995 72.54 4.47995 71.54 4.57995C71.24 4.57995 70.64 4.37995 70.04 4.87995Z" fill="#BE1824"/>
<path d="M267.24 7.18C267.34 8.88 267.34 10.58 266.74 12.28C266.34 13.58 265.64 14.68 264.84 15.68C264.14 16.48 263.34 17.08 262.34 17.48C261.24 17.88 260.14 17.88 259.04 17.48C257.94 17.08 256.84 16.58 255.94 15.98C255.04 15.28 254.24 14.48 253.74 13.28C252.74 10.98 252.34 8.68 252.24 6.18C252.24 5.28 252.14 4.48 252.14 3.58V2.78C252.24 1.58 253.24 0.780003 254.34 0.880003C255.44 0.880003 256.34 1.78 256.34 2.98C256.34 4.38 256.34 5.78 256.44 7.18C256.54 8.58 256.84 9.88 257.34 11.18C257.64 11.88 258.04 12.38 258.74 12.68C259.14 12.88 259.54 13.08 259.94 13.28C260.64 13.58 261.14 13.38 261.64 12.88C262.24 12.08 262.74 11.28 262.84 10.38C262.94 9.48 262.94 8.58 262.94 7.68C262.94 6.38 262.84 5.18 262.84 3.88V3.48C262.94 2.38 263.64 1.58 264.64 1.48C265.64 1.38 266.64 2.08 266.94 3.18C267.04 3.58 267.04 3.98 267.04 4.38V5.68C267.24 6.18 267.24 6.68 267.24 7.18Z" fill="#BE1824"/>
<path d="M48.54 10.28C49.14 9.78003 49.34 9.18003 49.54 8.68003C49.94 7.78003 50.24 6.98003 50.94 6.18003C51.24 5.88003 51.34 5.38003 51.54 4.98003C51.94 4.08003 52.24 3.28003 52.64 2.38003C53.04 1.48003 53.64 0.980026 54.54 0.880026C55.74 0.780026 56.74 1.68003 56.74 2.88003C56.74 3.38003 56.54 3.88003 56.44 4.28003C56.04 5.28003 55.64 6.18003 55.24 7.08003C54.94 7.68003 54.64 8.28003 54.24 8.88003C54.14 9.08003 53.94 9.28003 53.84 9.48003C53.04 11.28 52.14 13.08 51.34 14.78C51.14 15.18 51.04 15.58 50.84 15.88C49.84 17.38 47.54 17.38 46.74 15.68C45.94 13.78 44.84 12.08 43.84 10.28C43.84 10.18 43.74 10.08 43.74 10.08C43.14 8.28003 42.04 6.88003 41.04 5.28003C40.94 5.08003 40.84 4.98003 40.74 4.78003C40.14 3.68003 40.44 2.48003 41.44 1.88003C42.44 1.28003 43.74 1.58003 44.44 2.58003L44.54 2.68003C44.94 3.88003 45.84 4.88003 46.54 6.08003C46.84 6.58003 47.04 7.08003 47.24 7.58003C47.44 8.38003 47.94 9.28003 48.54 10.28Z" fill="#BE1824"/>
<path d="M8.84 9.48005C9.44 8.08005 9.94 6.78005 10.54 5.48005C10.94 4.48005 11.34 3.48005 11.84 2.48005C12.04 2.08005 12.24 1.78005 12.44 1.48005C13.04 0.680054 14.04 0.480054 14.84 0.880054C15.74 1.28005 16.14 2.08005 15.94 3.08005C15.84 3.38005 15.74 3.78005 15.64 4.08005C14.24 7.38005 12.84 10.6801 11.44 13.9801C11.24 14.4801 10.94 15.0801 10.64 15.4801C9.64 16.9801 7.84 16.8801 6.84 15.3801C6.64 15.0801 6.44 14.6801 6.34 14.2801C5.64 12.7801 4.94 11.1801 3.94 9.78005C3.24 8.78005 2.74 7.68005 2.14 6.58005C1.74 5.78005 1.24 5.08005 0.640004 4.38005C-0.259996 3.48005 -0.159996 2.18005 0.640004 1.38005C1.44 0.580054 2.84 0.580054 3.64 1.38005C4.04 1.68005 4.34 2.08005 4.54 2.58005C5.34 3.88005 6.04 5.18005 6.84 6.48005C7.34 7.38005 7.94 8.28005 8.44 9.08005C8.54 9.38005 8.64 9.38005 8.84 9.48005Z" fill="#BE1824"/>
<path d="M282.64 7.17997C282.84 8.57997 282.44 10.08 282.44 11.58C282.44 12.18 282.34 12.78 282.34 13.28C282.34 14.28 282.14 15.28 281.54 16.08C281.04 16.78 280.34 17.18 279.44 17.08C278.64 16.98 278.04 16.48 277.74 15.68C277.54 15.18 277.54 14.58 277.84 14.08C278.14 13.58 278.14 12.98 278.14 12.38C278.14 11.88 278.14 11.38 278.24 10.88C278.44 9.47997 278.54 7.97997 278.44 6.57997C278.34 5.97997 278.24 5.37997 278.24 4.67997C278.24 4.27997 278.14 3.87997 278.24 3.47997C278.64 2.17997 280.14 1.67997 281.34 2.37997C282.04 2.87997 282.44 3.57997 282.54 4.37997C282.54 5.37997 282.54 6.17997 282.64 7.17997Z" fill="#BE1824"/>
<path d="M31.04 14.5799C31.04 15.9799 30.24 16.9799 28.94 16.9799C27.84 16.9799 26.94 16.2799 26.84 15.1799C26.74 14.2799 26.64 13.3799 26.54 12.4799C26.44 11.3799 26.34 10.2799 26.24 9.17994C26.14 8.47994 26.14 7.77994 26.04 7.07994C25.94 6.37994 25.94 5.67994 25.74 4.97994C25.44 3.57994 26.14 2.57994 27.14 2.27994C28.24 1.97994 29.34 2.57994 29.74 3.77994C30.14 4.77994 30.14 5.77994 30.24 6.77994C30.34 7.77994 30.34 8.87994 30.54 9.87994C30.74 11.3799 30.94 12.7799 31.14 14.2799C31.04 14.2799 31.04 14.4799 31.04 14.5799Z" fill="#BE1824"/>
</g>
<defs>
<clipPath id="clip0_470_1853">
<rect width="376.33" height="19.1" fill="white"/>
</clipPath>
</defs>
</svg>
